<svg width="48" height="48" xmlns="http://www.w3.org/2000/svg" xmlns:xlink="http://www.w3.org/1999/xlink" overflow="hidden"><defs><clipPath id="clip0"><rect x="64" y="210" width="48" height="48"/></clipPath></defs><g clip-path="url(#clip0)" transform="translate(-64 -210)"><path d="M96.25 235.75 99.5 239 102.75 235.75 106 239 110 234 106 229 85.75 229C83.95 225.7 80.5 223.5 76.5 223.5 70.7 223.5 66 228.2 66 234 66 239.8 70.7 244.5 76.5 244.5 80.5 244.5 83.95 242.3 85.75 239L89 239 91 237 93 239 96.25 235.75ZM72 237C70.35 237 69 235.65 69 234 69 232.35 70.35 231 72 231 73.65 231 75 232.35 75 234 75 235.65 73.65 237 72 237Z" fill="#0078D4"/></g></svg>