<svg width="48" height="48" xmlns="http://www.w3.org/2000/svg" xmlns:xlink="http://www.w3.org/1999/xlink" overflow="hidden"><defs><clipPath id="clip0"><rect x="64" y="272" width="48" height="48"/></clipPath></defs><g clip-path="url(#clip0)" transform="translate(-64 -272)"><path d="M74.45 300.8 84.05 291.2 78.7 291.2C80.45 287.8 84 285.45 88.1 285.45 90.75 285.45 93.2 286.45 95.05 288.1L104.8 288.1C101.85 281.8 95.45 277.5 88.1 277.5 79.55 277.5 72.35 283.3 70.25 291.2L64.85 291.2 74.45 300.8Z" fill="#0078D4"/><path d="M111.3 300.8 101.7 291.2 92.1 300.8 97.5 300.8C95.75 304.2 92.2 306.55 88.1 306.55 85.45 306.55 83 305.55 81.15 303.9L71.35 303.9C74.35 310.2 80.7 314.5 88.1 314.5 96.65 314.5 103.85 308.7 105.95 300.8L111.3 300.8Z" fill="#0078D4"/></g></svg>