<svg width="48" height="48" xmlns="http://www.w3.org/2000/svg" xmlns:xlink="http://www.w3.org/1999/xlink" overflow="hidden"><defs><clipPath id="clip0"><rect x="62" y="333" width="48" height="48"/></clipPath></defs><g clip-path="url(#clip0)" transform="translate(-62 -333)"><path d="M100 342C100 344.209 93.732 346 86 346 78.268 346 72 344.209 72 342 72 339.791 78.268 338 86 338 93.732 338 100 339.791 100 342Z" fill="#0078D4"/><path d="M96 352C95.4 352 95 351.6 95 351 95 350.4 95.4 350 96 350 96.6 350 97 350.4 97 351 97 351.6 96.6 352 96 352ZM86 348C78.3 348 72 346.2 72 344L72 352C72 354.2 78.3 356 86 356 93.7 356 100 354.2 100 352L100 344C100 346.2 93.7 348 86 348Z" fill="#0078D4"/><path d="M96 362C95.4 362 95 361.6 95 361 95 360.4 95.4 360 96 360 96.6 360 97 360.4 97 361 97 361.6 96.6 362 96 362ZM86 358C78.3 358 72 356.2 72 354L72 362C72 364.2 78.3 366 86 366 93.7 366 100 364.2 100 362L100 354C100 356.2 93.7 358 86 358Z" fill="#0078D4"/><path d="M96 372C95.4 372 95 371.6 95 371 95 370.4 95.4 370 96 370 96.6 370 97 370.4 97 371 97 371.6 96.6 372 96 372ZM86 368C78.3 368 72 366.2 72 364L72 372C72 374.2 78.3 376 86 376 93.7 376 100 374.2 100 372L100 364C100 366.2 93.7 368 86 368Z" fill="#0078D4"/></g></svg>