<svg width="48" height="48" xmlns="http://www.w3.org/2000/svg" xmlns:xlink="http://www.w3.org/1999/xlink" overflow="hidden"><defs><clipPath id="clip0"><rect x="62" y="397" width="48" height="48"/></clipPath></defs><g clip-path="url(#clip0)" transform="translate(-62 -397)"><path d="M86.0025 407.124 86.0035 407.124 104.732 424.915 107.003 422.975 86.0035 402.999 86.0025 402.999 65.0035 422.975 67.2735 424.915 86.0025 407.124Z" fill="#0078D4"/><path d="M84.1556 422.309 84.1556 423.525 87.8945 423.525 87.8945 422.309C87.9004 422.212 87.8262 422.128 87.7288 422.122 87.7217 422.122 87.7146 422.122 87.7076 422.122L84.3426 422.122C84.2451 422.116 84.1615 422.191 84.1556 422.288 84.1552 422.295 84.1552 422.302 84.1556 422.309Z" fill="#0078D4"/><path d="M71.0024 424.132 71.0024 438.999 101.002 438.999 101.002 424.131 86.0029 409.882ZM93.5029 433.252C93.5018 433.664 93.1677 433.999 92.7551 434L79.295 434C78.8824 433.999 78.5483 433.664 78.5472 433.252L78.5472 428.014 84.9034 428.014 84.9034 428.388C84.9044 428.801 85.2385 429.135 85.6512 429.137L86.3989 429.137C86.8116 429.135 87.1457 428.801 87.1467 428.388L87.1467 428.014 93.5029 428.014ZM89.0162 422.309 89.0162 423.525 92.7551 423.525C93.1677 423.526 93.5018 423.861 93.5029 424.273L93.5029 427 87.1467 427 87.1467 426.5 84.9034 426.5 84.9034 427 78.5472 427 78.5472 424.273C78.5482 423.861 78.8824 423.526 79.295 423.525L83.0339 423.525 83.0339 422.309C83.0293 421.591 83.6079 421.005 84.3263 421 84.3317 421 84.3372 421 84.3426 421L87.7076 421C88.426 420.996 89.0119 421.575 89.0162 422.293 89.0162 422.298 89.0162 422.304 89.0162 422.309Z" fill="#0078D4"/></g></svg>