<svg width="48" height="48" xmlns="http://www.w3.org/2000/svg" xmlns:xlink="http://www.w3.org/1999/xlink" overflow="hidden"><defs><clipPath id="clip0"><rect x="62" y="461" width="48" height="48"/></clipPath></defs><g clip-path="url(#clip0)" transform="translate(-62 -461)"><path d="M86.0025 473.5C79.6513 473.5 74.5025 478.649 74.5025 485 74.5025 491.351 79.6513 496.5 86.0025 496.5 92.3538 496.5 97.5025 491.351 97.5025 485 97.4953 478.652 92.3508 473.507 86.0025 473.5ZM84.3675 489.682 79.356 484.67 81.059 482.967 84.3675 486.276 91.1435 479.5 92.8465 481.203Z" fill="#0078D4"/><path d="M103.062 485.633C102.762 485.264 102.762 484.736 103.062 484.367L104.294 482.858C104.644 482.43 104.581 481.8 104.153 481.451 104.124 481.427 104.093 481.405 104.062 481.384L102.423 480.329C102.024 480.072 101.86 479.57 102.032 479.127L102.738 477.31C102.938 476.795 102.682 476.216 102.167 476.016 102.132 476.002 102.097 475.991 102.061 475.981L100.176 475.484C99.7166 475.363 99.4059 474.935 99.4325 474.461L99.542 472.515C99.573 471.964 99.151 471.491 98.5997 471.461 98.5623 471.458 98.5248 471.458 98.4875 471.461L96.5415 471.57C96.0672 471.597 95.6396 471.286 95.5185 470.827L95.0215 468.942C94.8806 468.408 94.3335 468.089 93.7995 468.23 93.7632 468.24 93.7274 468.251 93.6925 468.265L91.8755 468.97C91.4326 469.142 90.9301 468.979 90.673 468.579L89.618 466.941C89.319 466.477 88.7002 466.343 88.2358 466.642 88.2041 466.662 88.1737 466.684 88.1445 466.708L86.635 467.94C86.2669 468.241 85.7381 468.241 85.37 467.94L83.8605 466.708C83.4328 466.359 82.8028 466.422 82.4534 466.85 82.4296 466.879 82.4074 466.909 82.387 466.941L81.332 468.579C81.0749 468.979 80.5723 469.142 80.1295 468.97L78.3125 468.265C77.7977 468.065 77.2182 468.32 77.0182 468.835 77.0047 468.87 76.993 468.906 76.9835 468.942L76.4865 470.827C76.3654 471.286 75.9378 471.597 75.4635 471.57L73.5175 471.461C72.9661 471.43 72.4939 471.851 72.463 472.403 72.4609 472.44 72.4609 472.478 72.463 472.515L72.5725 474.461C72.5991 474.935 72.2884 475.363 71.829 475.484L69.9445 475.981C69.4105 476.122 69.0919 476.669 69.2327 477.203 69.2423 477.239 69.2539 477.275 69.2675 477.31L69.973 479.127C70.1448 479.57 69.9814 480.072 69.582 480.329L67.9435 481.384C67.479 481.683 67.3447 482.302 67.6435 482.767 67.6639 482.798 67.6861 482.829 67.71 482.858L68.9425 484.367C69.2431 484.736 69.2431 485.264 68.9425 485.633L67.71 487.142C67.3606 487.57 67.4242 488.2 67.8521 488.549 67.8812 488.573 67.9118 488.595 67.9435 488.616L69.582 489.671C69.9814 489.928 70.1448 490.43 69.973 490.873L69.2675 492.69C69.0675 493.205 69.3228 493.784 69.8375 493.984 69.8725 493.998 69.9082 494.009 69.9445 494.019L71.829 494.516C72.2884 494.637 72.5991 495.065 72.5725 495.539L72.463 497.485C72.4321 498.036 72.854 498.509 73.4053 498.539 73.4427 498.542 73.4801 498.542 73.5175 498.539L75.4635 498.43C75.9378 498.403 76.3654 498.714 76.4865 499.173L76.9835 501.058C77.1244 501.592 77.6715 501.911 78.2056 501.77 78.2418 501.76 78.2775 501.749 78.3125 501.735L80.1295 501.03C80.5723 500.858 81.0749 501.021 81.332 501.421L82.387 503.059C82.686 503.523 83.3048 503.657 83.7691 503.358 83.8008 503.338 83.8314 503.316 83.8605 503.292L85.37 502.06C85.7381 501.759 86.2669 501.759 86.635 502.06L88.1445 503.292C88.5722 503.641 89.2021 503.578 89.5516 503.15 89.5755 503.121 89.5976 503.091 89.618 503.059L90.673 501.421C90.9301 501.021 91.4327 500.858 91.8755 501.03L93.6925 501.735C94.2073 501.935 94.7868 501.68 94.9868 501.165 95.0003 501.13 95.0119 501.094 95.0215 501.058L95.5185 499.173C95.6396 498.714 96.0672 498.403 96.5415 498.43L98.4875 498.539C99.0389 498.57 99.511 498.149 99.542 497.597 99.5441 497.56 99.5441 497.522 99.542 497.485L99.4325 495.539C99.4059 495.065 99.7166 494.637 100.176 494.516L102.061 494.019C102.594 493.878 102.913 493.331 102.772 492.797 102.763 492.761 102.751 492.725 102.738 492.69L102.032 490.873C101.86 490.43 102.024 489.928 102.423 489.671L104.062 488.616C104.526 488.316 104.66 487.698 104.361 487.233 104.34 487.202 104.318 487.171 104.294 487.142ZM86.0025 498C78.8228 498 73.0025 492.18 73.0025 485 73.0025 477.82 78.8228 472 86.0025 472 93.1822 472 99.0025 477.82 99.0025 485 98.9945 492.176 93.1789 497.992 86.0025 498Z" fill="#0078D4"/></g></svg>